<?xml version="1.0" standalone="no"?>
<!DOCTYPE svg PUBLIC "-//W3C//DTD SVG 20010904//EN"
 "http://www.w3.org/TR/2001/REC-SVG-20010904/DTD/svg10.dtd">
<svg version="1.0" xmlns="http://www.w3.org/2000/svg"
 width="128.000000pt" height="128.000000pt" viewBox="0 0 128.000000 128.000000"
 preserveAspectRatio="xMidYMid meet">

<g transform="translate(0.000000,128.000000) scale(0.100000,-0.100000)"
fill="#000000" stroke="none">
<path d="M462 1260 c-282 -74 -462 -315 -462 -620 0 -375 265 -640 640 -640
374 0 640 266 640 640 0 307 -181 547 -466 620 -102 26 -252 26 -352 0z m158
-273 l0 -63 -35 -1 c-41 -1 -59 22 -49 63 5 21 11 25 30 21 20 -3 24 0 24 19
0 15 6 24 15 24 12 0 15 -14 15 -63z m160 53 c0 -5 -7 -10 -15 -10 -8 0 -15 5
-15 10 0 6 7 10 15 10 8 0 15 -4 15 -10z m-391 -9 c8 -5 12 -18 9 -29 -3 -10
-1 -26 3 -35 13 -22 -15 -47 -52 -47 -29 0 -29 0 -29 60 0 59 1 60 28 60 15 0
33 -4 41 -9z m119 -67 l3 -41 -38 1 c-31 1 -39 5 -41 23 -3 17 3 24 22 29 14
3 23 10 21 15 -3 4 -12 6 -20 2 -8 -3 -15 0 -15 7 0 7 13 10 33 8 30 -3 32 -6
35 -44z m212 4 c0 -43 0 -43 -37 -43 -51 0 -58 30 -12 49 19 8 27 16 20 20 -6
4 -15 5 -20 1 -5 -3 -12 -1 -16 5 -4 6 8 10 29 10 36 0 36 0 36 -42z m58 -14
c-2 -40 -8 -60 -20 -68 -9 -5 -21 -6 -25 -2 -4 5 -2 11 5 13 7 3 12 25 12 59
0 42 3 54 15 54 13 0 15 -11 13 -56z m106 40 c17 -45 -7 -81 -48 -70 -51 13
-40 86 13 86 17 0 31 -6 35 -16z m96 10 c0 -3 -9 -18 -21 -32 l-21 -27 21 -3
c34 -5 24 -22 -14 -22 -39 0 -42 7 -20 36 19 25 19 34 0 34 -8 0 -15 5 -15 10
0 6 16 10 35 10 19 0 35 -3 35 -6z m-450 -204 c0 -5 -7 -10 -15 -10 -11 0 -15
-12 -15 -50 0 -27 -4 -50 -10 -50 -5 0 -10 23 -10 50 0 38 -4 50 -15 50 -8 0
-15 5 -15 10 0 6 18 10 40 10 22 0 40 -4 40 -10z m250 -9 c0 -15 5 -18 21 -14
26 7 39 -11 39 -54 0 -23 -5 -33 -15 -33 -10 0 -15 11 -15 35 0 24 -5 35 -15
35 -10 0 -15 -11 -15 -35 0 -24 -5 -35 -15 -35 -12 0 -15 13 -15 60 0 47 3 60
15 60 8 0 15 -9 15 -19z m-152 -38 c3 -19 -1 -23 -22 -23 -35 0 -33 -18 2 -22
23 -4 24 -5 9 -12 -28 -13 -67 9 -67 37 0 31 19 48 50 45 17 -2 26 -10 28 -25z
m97 17 c-3 -5 -15 -10 -26 -10 -26 0 -26 -40 1 -47 11 -3 20 -9 20 -14 0 -13
-34 -11 -48 3 -13 13 -16 60 -5 71 11 11 65 8 58 -3z m-315 -237 c0 -7 -6 -13
-13 -13 -8 0 -14 6 -14 13 0 8 6 14 14 14 7 0 13 -6 13 -14z m263 -65 l42 -23
-38 -3 c-21 -2 -45 2 -53 9 -11 9 -17 9 -28 0 -8 -7 -32 -11 -53 -9 l-38 3 40
22 c51 28 76 28 128 1z m-493 1 c0 -5 -4 -8 -9 -5 -5 4 -12 0 -14 -6 -3 -8 -6
-6 -6 5 -1 9 6 17 14 17 8 0 15 -5 15 -11z m161 2 c-9 -6 -10 -11 -2 -15 16
-10 14 -26 -4 -26 -8 0 -15 8 -15 18 0 21 8 32 24 32 6 0 5 -4 -3 -9z m419 -1
c0 -5 -7 -7 -15 -4 -8 4 -15 8 -15 10 0 2 7 4 15 4 8 0 15 -4 15 -10z m-265
-44 c24 -26 55 -35 55 -16 0 6 9 10 20 10 11 0 20 -4 20 -8 0 -4 20 -21 45
-37 51 -32 51 -40 -1 -37 -21 2 -33 -1 -30 -7 4 -5 2 -12 -4 -16 -5 -3 -10 -1
-10 4 0 18 -42 12 -56 -6 -7 -10 -16 -15 -20 -11 -9 10 15 38 32 38 14 0 20
29 7 31 -58 6 -83 19 -83 45 0 19 -5 24 -25 24 -14 0 -25 4 -25 9 0 18 51 3
75 -23z m265 24 c12 -8 11 -10 -7 -10 -13 0 -23 5 -23 10 0 13 11 13 30 0z
m-472 -37 c-6 -7 -15 -10 -20 -7 -6 4 -5 -2 1 -14 19 -35 13 -68 -13 -80 -24
-11 -25 -10 -23 23 2 19 6 37 10 41 4 4 7 20 7 35 0 30 18 42 36 25 8 -8 9
-15 2 -23z m-166 -28 c0 -5 -5 -11 -11 -13 -6 -2 -11 4 -11 13 0 9 5 15 11 13
6 -2 11 -8 11 -13z m621 -3 c-4 -10 -2 -13 5 -8 19 11 14 -5 -5 -21 -10 -8
-12 -12 -5 -8 8 4 11 -1 8 -17 -3 -13 -5 -25 -6 -28 -2 -3 -2 -8 -2 -11 1 -4
-8 -5 -18 -2 -11 3 -20 13 -21 22 -2 49 -16 70 -47 71 -7 0 -11 4 -8 8 3 5 28
9 55 9 41 1 49 -2 44 -15z m-556 -9 c2 -6 -7 -8 -22 -6 -14 3 -25 9 -25 14 0
12 43 5 47 -8z m833 8 c0 -5 16 -15 35 -21 20 -7 35 -18 35 -27 0 -9 -6 -13
-14 -10 -9 4 -16 -3 -20 -16 -7 -30 -66 -32 -66 -3 0 15 -3 16 -14 7 -11 -9
-15 -8 -20 5 -9 24 0 31 34 26 19 -3 30 -10 30 -21 0 -13 2 -13 9 -2 6 10 1
21 -15 36 -28 26 -30 35 -9 35 8 0 15 -4 15 -9z m140 -44 c0 -4 -6 -2 -14 5
-8 7 -12 17 -9 22 5 8 23 -12 23 -27z m-1000 3 c0 -5 -4 -10 -10 -10 -5 0 -10
5 -10 10 0 6 5 10 10 10 6 0 10 -4 10 -10z m0 -41 c-7 -11 -14 -18 -17 -15 -3
3 0 12 7 21 18 21 23 19 10 -6z m990 -10 c0 -5 -7 -9 -15 -9 -15 0 -20 12 -9
23 8 8 24 -1 24 -14z"/>
<path d="M562 968 c5 -32 28 -35 28 -4 0 17 -5 26 -16 26 -10 0 -14 -7 -12
-22z"/>
<path d="M350 1005 c0 -9 5 -15 11 -13 6 2 11 8 11 13 0 5 -5 11 -11 13 -6 2
-11 -4 -11 -13z"/>
<path d="M350 954 c0 -9 5 -14 12 -12 18 6 21 28 4 28 -9 0 -16 -7 -16 -16z"/>
<path d="M450 950 c0 -5 7 -10 15 -10 8 0 15 5 15 10 0 6 -7 10 -15 10 -8 0
-15 -4 -15 -10z"/>
<path d="M670 950 c0 -5 4 -10 9 -10 6 0 13 5 16 10 3 6 -1 10 -9 10 -9 0 -16
-4 -16 -10z"/>
<path d="M832 968 c5 -32 28 -35 28 -4 0 17 -5 26 -16 26 -10 0 -14 -7 -12
-22z"/>
<path d="M587 763 c-12 -11 -8 -23 8 -23 8 0 15 7 15 15 0 16 -12 20 -23 8z"/>
</g>
</svg>
